<svg xmlns="http://www.w3.org/2000/svg" xmlns:xlink="http://www.w3.org/1999/xlink" xmlns:lucid="lucid" width="1003.51" height="605"><g transform="translate(-12 -4)" lucid:page-tab-id="3d1rrcLtfdPh"><path d="M32 34c0-2.76 2.24-5 5-5h540.56c2.76 0 5 2.24 5 5v550c0 2.76-2.24 5-5 5H37c-2.76 0-5-2.24-5-5z" stroke="#000" stroke-width="2" fill="#c1e4f7"/><use xlink:href="#a" transform="matrix(1,0,0,1,37,34) translate(192.85185185185185 24.888888888888893)"/><path d="M780 162c0-2.76 2.24-5 5-5h189c2.77 0 5 2.24 5 5v290c0 2.76-2.23 5-5 5H785c-2.76 0-5-2.24-5-5z" stroke="#000" stroke-width="2" fill="#ffdf71"/><use xlink:href="#b" transform="matrix(1,0,0,1,785,162) translate(21.599999999999994 14.4)"/><path d="M861.15 248.24c0-1.92 1.56-3.48 3.48-3.48s3.48 1.56 3.48 3.48v4.8h3.13v-11.28h-13.2v11.28h3.12v-4.8z" stroke="#000" stroke-opacity="0" stroke-width=".41" fill-opacity="0"/><path d="M927.4 253.4c-.25-2.64-.6-4.92-1.2-7.56l-48.73 1.68 44.04-14.16c0-.12-.1-.12-.1-.24-1.57-2.88-3.6-5.64-5.77-8.16l-38.88 20.16 28.2-29.4.36-.36c-7.43-4.68-16.3-7.32-25.67-7.32-26.88 0-48.72 21.84-48.72 48.72 0 16.92 8.65 31.8 21.73 40.56l.72-8.52L877 299.12l.47 6.24c.72 0 1.44.12 2.16.12 23.16 0 42.6-16.44 47.52-38.16l-.72-.24-49.68-17.28 50.64 3.6 2.4.24 8.27.6-8.28-.6-2.4-.24zm-74.4 5.16v-5.52h1.9v-11.28H853v-3.24l10.67-10.44v-.72c0-.48.36-.96.96-.96s.96.48.96.96v.72l10.67 10.44v3.24h-1.92v11.28h1.92v5.52h-2.64l1.32 16.56-19.56-8.64.7-7.92H853zm22.8 26.52l.35 4.08-21.96-9.72.35-3.72 21.24 9.36zm-21-12.12l.35-3.72 20.04 8.88.35 4.08-20.76-9.24zm-1.2 13.08l.35-3.84 22.44 9.96.35 3.96-23.16-10.08z" stroke="#000" stroke-opacity="0" stroke-width=".41" fill-opacity="0"/><path d="M855.4 266.48l19.55 8.64-1.32-16.56h2.64v-5.52h-1.92v-11.28h1.92v-3.24l-10.68-10.44v-.72c0-.48-.37-.96-.97-.96s-.96.48-.96.96v.72L853 238.52v3.24h1.9v11.28H853v5.52h3.1l-.7 7.92zm2.63-24.72h13.2v11.28h-3.12v-4.8c0-1.92-1.55-3.48-3.47-3.48-1.92 0-3.48 1.56-3.48 3.48v4.8h-3.12v-11.28zm-3.84 37.68l21.95 9.72-.36-4.08-21.25-9.36zm-.25 2.76l-.36 3.84 23.15 10.08-.36-3.96zm1.2-12.96l-.36 3.72 20.75 9.24-.36-4.08z" stroke="#000" stroke-opacity="0" stroke-width=".41"/><path d="M936.5 270.56c.13-.12.13-.12.13-.24 1.32-5.52 1.68-10.44 1.44-16.08l-8.28-.6-2.4-.24-50.65-3.6 49.68 17.28.72.24c-4.92 21.72-24.36 38.16-47.52 38.16-.72 0-1.44-.12-2.16-.12l-.48-6.24-23.65-10.32-.72 8.52c-13.08-8.76-21.72-23.64-21.72-40.56 0-26.88 21.85-48.72 48.73-48.72 9.36 0 18.24 2.64 25.68 7.32l-.35.36-28.2 29.4 38.88-20.16c2.16 2.52 4.2 5.28 5.76 8.16 0 .12.1.12.1.24l-44.03 14.16 48.72-1.68c.6 2.64.95 4.92 1.2 7.56l2.4.24 8.27.6c-.12-3.12-.48-5.76-1.08-8.76-1.1-5.64-2.77-10.32-5.4-15.36-1.93-3.72-3.97-6.72-6.6-10.08-3.73-4.56-7.45-8.04-12.37-11.4-.24-.12-.36-.24-.48-.36-9.36-6.24-20.64-9.96-32.64-9.96-32.27 0-58.67 26.4-58.67 58.68s26.4 58.68 58.68 58.68c27.73 0 50.9-19.32 57-45.12z" stroke="#000" stroke-opacity="0" stroke-width=".41"/><path d="M879.5 197c-33.1 0-60 26.88-60 60 0 33.12 26.9 60 60 60 33.13 0 60-26.88 60-60 0-33.12-26.87-60-60-60zm-58.67 60c0-32.28 26.4-58.68 58.68-58.68 12 0 23.3 3.72 32.65 9.96.12.12.24.24.48.36 4.92 3.36 8.64 6.84 12.36 11.4 2.63 3.36 4.67 6.36 6.6 10.08 2.63 5.04 4.3 9.72 5.4 15.36.6 3 .95 5.64 1.07 8.76.24 5.64-.12 10.56-1.44 16.08 0 .12 0 .12-.12.24-6.1 25.8-29.27 45.12-57 45.12-32.27 0-58.67-26.4-58.67-58.68z" stroke="#000" stroke-opacity="0" stroke-width=".41"/><path d="M862.08 518.02c5.5 0 9.46 2.24 12.32 4.9l-3.52 4.42c-2.64-2.04-5.28-3.6-8.58-3.6-7.7 0-13.2 6.38-13.2 15.77 0 9.4 5.28 15.65 12.98 15.65 3.96 0 7.48-1.97 9.9-4.08l3.08 4.5c-3.74 3.25-8.58 5.3-13.64 5.3-11.22 0-19.8-7.83-19.8-21.43.22-13.6 9.68-21.42 20.46-21.42zm18.7-18.02h7.04v52.16c0 2.24 1.1 3.06 1.98 3.06.44 0 .88 0 1.54-.2l1.1 5.23c-1.1.4-2.2.68-4.18.68-5.28 0-7.48-3.27-7.48-9.25V500zm42.24 34c0-5.24-1.98-10.27-8.8-10.27-4.84 0-9.24 2.18-12.54 4.35l-2.86-4.76c3.96-2.44 9.9-5.3 16.5-5.3 10.34 0 14.74 6.66 14.74 16.8v25.1h-5.94l-.66-4.9h-.22c-3.96 3.26-8.58 5.9-13.86 5.9-7.04 0-12.32-4.28-12.32-11.55 0-8.98 7.92-13.47 25.96-15.37zm-11.66 21.35c4.18 0 7.48-1.97 11.66-5.5v-11.36c-14.3 1.7-18.92 5.1-18.92 10.32 0 4.63 3.08 6.53 7.26 6.53zm27.28-49.23c0-2.65 1.98-4.5 4.84-4.5s5.06 1.85 5.06 4.5c0 2.58-2.2 4.5-5.06 4.5-2.64 0-4.84-1.92-4.84-4.5zm1.32 12.92H947v40.87h-7.04v-40.86zm16.94 0h5.72l.66 7.4h.22c2.86-5.1 7.26-8.42 11.88-8.42 1.98 0 3.3.2 4.62.82l-1.32 6.05c-1.54-.42-2.42-.62-4.18-.62-3.52 0-7.7 2.44-10.56 9.45v26.25h-7.26v-40.94z" stroke="#000" stroke-opacity="0"/><path d="M792.12 506.6c-17.6-.2-31.9 13.32-32.12 30.26-.22 16.93 13.64 30.94 31.24 31.14h26.18c3.74 0 5.94-1.9 5.94-5.44v-25.02c0-16.87-13.86-30.67-31.24-30.94zm-.88 54.26c-13.42-.2-23.98-10.8-23.76-23.8 0-12.92 11-23.26 24.42-23.12 13.2.2 23.98 10.88 23.76 23.8-.22 13-11.22 23.32-24.42 23.12z" stroke="#000" stroke-opacity="0" fill="#56a3d9"/><path d="M783.1 533.46c.66-1.64 1.98-3.06 3.96-4.02 1.54-.88 3.52-1.3 5.28-1.08l2.64-9.18c-4.18-.68-8.8-.14-12.76 2.04-3.96 2.24-7.04 5.78-8.58 9.72l9.46 2.52zm4.4 12.24c-1.76-.75-3.3-2.04-4.18-3.8-1.1-1.64-1.32-3.48-1.1-5.25l-9.46-2.45c-.88 4.02-.22 8.37 1.98 12.3 2.42 3.96 5.94 6.8 10.12 8.3l2.64-9.1z" stroke="#000" stroke-opacity="0" fill="#56a3d9"/><path d="M800.04 541.34c-.88 1.7-2.2 3.2-3.96 4.15-1.76.88-3.52 1.22-5.28 1l-2.64 9.2c4.18.74 8.58.13 12.54-2.05 4.18-2.24 7.04-5.7 8.58-9.8l-9.24-2.5z" stroke="#000" stroke-opacity="0" fill="#f1626e"/><path d="M59.28 102c0-2.76 2.24-5 5-5h470c2.76 0 5 2.24 5 5v50c0 2.76-2.24 5-5 5h-470c-2.76 0-5-2.24-5-5z" stroke="#000" stroke-width="2" fill="#ef8d22"/><use xlink:href="#c" transform="matrix(1,0,0,1,64.27857252847775,102) translate(44.5690104166666 31.462239583333336)"/><path d="M59.28 182c0-2.76 2.24-5 5-5h470c2.76 0 5 2.24 5 5v50c0 2.76-2.24 5-5 5h-470c-2.76 0-5-2.24-5-5z" stroke="#000" stroke-width="2" fill="#ef8d22"/><use xlink:href="#d" transform="matrix(1,0,0,1,64.27857252847775,182) translate(44.5690104166666 31.462239583333336)"/><path d="M59.28 262c0-2.76 2.24-5 5-5h470c2.76 0 5 2.24 5 5v50c0 2.76-2.24 5-5 5h-470c-2.76 0-5-2.24-5-5z" stroke="#000" stroke-width="2" fill="#ef8d22"/><use xlink:href="#e" transform="matrix(1,0,0,1,64.27857252847775,262) translate(22.16536458333323 31.462239583333336)"/><path d="M59.28 342c0-2.76 2.24-5 5-5h470c2.76 0 5 2.24 5 5v50c0 2.76-2.24 5-5 5h-470c-2.76 0-5-2.24-5-5z" stroke="#000" stroke-width="2" fill="#ef8d22"/><use xlink:href="#f" transform="matrix(1,0,0,1,64.27857252847775,342) translate(44.5690104166666 31.462239583333336)"/><path d="M59.28 422c0-2.76 2.24-5 5-5h470c2.76 0 5 2.24 5 5v50c0 2.76-2.24 5-5 5h-470c-2.76 0-5-2.24-5-5z" stroke="#000" stroke-width="2" fill="#ef8d22"/><use xlink:href="#g" transform="matrix(1,0,0,1,64.27857252847775,422) translate(44.5690104166666 31.462239583333336)"/><path d="M59.28 502c0-2.76 2.24-5 5-5h470c2.76 0 5 2.24 5 5v50c0 2.76-2.24 5-5 5h-470c-2.76 0-5-2.24-5-5z" stroke="#000" stroke-width="2" fill="#ef8d22"/><use xlink:href="#h" transform="matrix(1,0,0,1,64.27857252847775,502) translate(44.5690104166666 31.462239583333336)"/><path d="M541.28 127.02l3.84.08 4.6.3 4.42.45 4.23.63 4.1.78 3.98.93 3.88 1.08 3.8 1.24 3.77 1.4 3.73 1.56 3.72 1.75 3.72 1.95 3.75 2.16 3.8 2.42 3.9 2.7 4.03 3.06 4.18 3.46 4.4 3.97 4.72 4.62 5.15 5.5 5.84 6.78 7.03 8.88 9.95 13.75 37.6 54.8 7.02 8.87 5.83 6.78 5.16 5.5 4.72 4.62 4.4 3.97 4.18 3.46 4.02 3.05 3.9 2.7 3.8 2.43 3.76 2.16 3.73 1.95 3.72 1.75 3.72 1.57 3.76 1.38 3.82 1.24 3.88 1.1 3.98.92 3.78.72" stroke="#000" stroke-width="2" fill="none"/><path d="M541.33 126.02l-.04 2-1.02-.02v-2z"/><path d="M775.78 306.73l-14.6 3.43.76-9.24z" stroke="#000" stroke-width="2"/><path d="M541.28 207.02l7.54.16 7.8.48 7.2.76 6.72 1 6.33 1.2 6 1.4 5.77 1.6 5.57 1.83 5.47 2.02 5.4 2.28 5.43 2.55 5.53 2.9 5.78 3.33 6.26 3.97 7.14 4.98 9.4 7.15 39.48 31.9 7.14 4.97 6.25 3.97 5.78 3.34 5.53 2.9 5.43 2.55 5.4 2.28 5.46 2.02 5.58 1.82 5.76 1.6 6 1.4 6.33 1.22 6.72.98 5.08.53" stroke="#000" stroke-width="2" fill="none"/><path d="M541.33 206.02l-.04 2-1.02-.02v-2z"/><path d="M775.77 306.84l-14.47 3.95.44-9.27z" stroke="#000" stroke-width="2"/><path d="M541.28 287.02l35.17.7 25.87 1.6 22.22 2.32 92.42 13.05 25.87 1.6 17.67.34" stroke="#000" stroke-width="2" fill="none"/><path d="M541.33 286.02l-.04 2-1.02-.02v-2z"/><path d="M775.76 306.94l-14.35 4.35.2-9.28z" stroke="#000" stroke-width="2"/><path d="M541.28 366.98l12.8-.26 11.94-.75 10.57-1.1 9.53-1.4 8.8-1.7 8.27-1.93 8-2.23 8-2.6 8.36-3.1 9.6-4.05 15.38-7.3 29.58-14.4 9.6-4.04 8.36-3.1 8-2.6 8-2.24 8.28-1.94 8.8-1.68 9.53-1.4 10.56-1.1 7.25-.47" stroke="#000" stroke-width="2" fill="none"/><path d="M541.33 367.98l-1.05.02v-2l1-.02z"/><path d="M775.77 307.1l-14.12 5.08-.3-9.27z" stroke="#000" stroke-width="2"/><path d="M541.28 446.98l5.18-.1 5.8-.37 5.46-.57 5.2-.76 4.97-.95 4.77-1.12 4.63-1.3 4.52-1.46 4.42-1.65 4.37-1.84 4.35-2.05 4.36-2.26 4.4-2.55 4.5-2.86 4.65-3.23 4.87-3.7 5.24-4.33 5.8-5.22 6.8-6.68 9.16-9.8 39-44.14 6.8-6.68 5.8-5.22 5.24-4.34 4.87-3.7 4.65-3.24 4.5-2.85 4.4-2.54 4.34-2.27 4.35-2.06 4.37-1.83 4.42-1.64 4.52-1.47 4.63-1.3 4.8-1.12 4.96-.95 4.2-.62" stroke="#000" stroke-width="2" fill="none"/><path d="M541.33 447.98l-1.05.02v-2l1-.02z"/><path d="M775.77 307.2l-13.93 5.57-.6-9.25z" stroke="#000" stroke-width="2"/><path d="M541.28 526.98l2.96-.06 3.8-.24 3.68-.4 3.56-.5 3.46-.67 3.4-.8 3.33-.92 3.3-1.07 3.25-1.2 3.25-1.37 3.25-1.53 3.27-1.7 3.3-1.92 3.35-2.13 3.42-2.38 3.52-2.67 3.63-3.02 3.8-3.42 4-3.92 4.26-4.54 4.6-5.34 5.08-6.4 5.77-7.98 6.95-10.48 9.5-15.77 42.78-76.02 6.94-10.47 5.78-7.97 5.08-6.4 4.6-5.35 4.26-4.53 4-3.92 3.8-3.42 3.65-3.02 3.5-2.66 3.43-2.38 3.36-2.13 3.3-1.9 3.26-1.72 3.25-1.52 3.26-1.37 3.26-1.2 3.3-1.07 3.32-.93 3.4-.8h.1" stroke="#000" stroke-width="2" fill="none"/><path d="M541.33 527.98l-1.05.02v-2l1-.02z"/><path d="M775.78 306.14l-13.72 6.06-.94-9.22z" stroke="#000" stroke-width="2"/><path d="M640 60h126.4L780 73.6V128H640z" stroke="#689b3d" stroke-width="2" fill="#7ab648"/><path d="M766.4 60v13.6H780" fill="#689b3d"/><path d="M717 152.03V137h-14v15.03h-10L709.97 169l16.97-16.97H717z" fill="#78b740"/><use xlink:href="#i" transform="matrix(1,0,0,1,645,65) translate(-0.7777777777777857 34.333333333333336)"/><path d="M799.5 340h147.4l12.6 12.6V403h-160z" stroke="#d97a6d" stroke-width="2" fill="#ff8f80"/><path d="M946.9 340v12.6h12.6" fill="#d97a6d"/><path d="M975.5 340c0 8.84-7.16 16-16 16-8.83 0-16-7.16-16-16s7.17-16 16-16c8.84 0 16 7.16 16 16z" fill="#78b740"/><path d="M952.87 337.52l-2.73 2.9 6.72 6.32 12-11.28-2.72-2.92-9.28 8.72-4-3.74z" fill="#fff"/><use xlink:href="#j" transform="matrix(1,0,0,1,804.5057989016586,345) translate(17.125 30.1)"/><use xlink:href="#k" transform="matrix(1,0,0,1,804.5057989016586,345) translate(76.975 30.1)"/><path d="M759.26 534H735c-2.76 0-5-2.24-5-5v-84c0-2.76 2.24-5 5-5h139.5c2.77 0 5-2.24 5-5v-12.5" stroke="#de5f85" stroke-width="2" fill="none"/><path d="M760.16 535h-.92v-2h1.13z" fill="#de5f85"/><path d="M879.5 407.24l4.64 14.26h-9.27z" stroke="#de5f85" stroke-width="2" fill="#de5f85"/><defs><path fill="#0c7cba" d="M30-248c118-7 216 8 213 122C240-48 200 0 122 0H30v-248zM63-27c89 8 146-16 146-99s-60-101-146-95v194" id="l"/><path fill="#0c7cba" d="M100-194c62-1 85 37 85 99 1 63-27 99-86 99S16-35 15-95c0-66 28-99 85-99zM99-20c44 1 53-31 53-75 0-43-8-75-51-75s-53 32-53 75 10 74 51 75" id="m"/><path fill="#0c7cba" d="M96-169c-40 0-48 33-48 73s9 75 48 75c24 0 41-14 43-38l32 2c-6 37-31 61-74 61-59 0-76-41-82-99-10-93 101-131 147-64 4 7 5 14 7 22l-32 3c-4-21-16-35-41-35" id="n"/><path fill="#0c7cba" d="M143 0L79-87 56-68V0H24v-261h32v163l83-92h37l-77 82L181 0h-38" id="o"/><path fill="#0c7cba" d="M100-194c63 0 86 42 84 106H49c0 40 14 67 53 68 26 1 43-12 49-29l28 8c-11 28-37 45-77 45C44 4 14-33 15-96c1-61 26-98 85-98zm52 81c6-60-76-77-97-28-3 7-6 17-6 28h103" id="p"/><path fill="#0c7cba" d="M114-163C36-179 61-72 57 0H25l-1-190h30c1 12-1 29 2 39 6-27 23-49 58-41v29" id="q"/><path fill="#0c7cba" d="M197 0v-115H63V0H30v-248h33v105h134v-105h34V0h-34" id="r"/><path fill="#0c7cba" d="M84 4C-5 8 30-112 23-190h32v120c0 31 7 50 39 49 72-2 45-101 50-169h31l1 190h-30c-1-10 1-25-2-33-11 22-28 36-60 37" id="s"/><path fill="#0c7cba" d="M115-194c53 0 69 39 70 98 0 66-23 100-70 100C84 3 66-7 56-30L54 0H23l1-261h32v101c10-23 28-34 59-34zm-8 174c40 0 45-34 45-75 0-40-5-75-45-74-42 0-51 32-51 76 0 43 10 73 51 73" id="t"/><g id="a"><use transform="matrix(0.08641975308641976,0,0,0.08641975308641976,0,0)" xlink:href="#l"/><use transform="matrix(0.08641975308641976,0,0,0.08641975308641976,22.38271604938272,0)" xlink:href="#m"/><use transform="matrix(0.08641975308641976,0,0,0.08641975308641976,39.66666666666667,0)" xlink:href="#n"/><use transform="matrix(0.08641975308641976,0,0,0.08641975308641976,55.22222222222223,0)" xlink:href="#o"/><use transform="matrix(0.08641975308641976,0,0,0.08641975308641976,70.77777777777779,0)" xlink:href="#p"/><use transform="matrix(0.08641975308641976,0,0,0.08641975308641976,88.06172839506173,0)" xlink:href="#q"/><use transform="matrix(0.08641975308641976,0,0,0.08641975308641976,98.34567901234568,0)" xlink:href="#r"/><use transform="matrix(0.08641975308641976,0,0,0.08641975308641976,120.7283950617284,0)" xlink:href="#s"/><use transform="matrix(0.08641975308641976,0,0,0.08641975308641976,138.01234567901236,0)" xlink:href="#t"/></g><path d="M106-169C34-169 62-67 57 0H25v-261h32l-1 103c12-21 28-36 61-36 89 0 53 116 60 194h-32v-121c2-32-8-49-39-48" id="u"/><path d="M141-36C126-15 110 5 73 4 37 3 15-17 15-53c-1-64 63-63 125-63 3-35-9-54-41-54-24 1-41 7-42 31l-33-3c5-37 33-52 76-52 45 0 72 20 72 64v82c-1 20 7 32 28 27v20c-31 9-61-2-59-35zM48-53c0 20 12 33 32 33 41-3 63-29 60-74-43 2-92-5-92 41" id="v"/><path d="M114-163C36-179 61-72 57 0H25l-1-190h30c1 12-1 29 2 39 6-27 23-49 58-41v29" id="w"/><path d="M115-194c53 0 69 39 70 98 0 66-23 100-70 100C84 3 66-7 56-30L54 0H23l1-261h32v101c10-23 28-34 59-34zm-8 174c40 0 45-34 45-75 0-40-5-75-45-74-42 0-51 32-51 76 0 43 10 73 51 73" id="x"/><path d="M100-194c62-1 85 37 85 99 1 63-27 99-86 99S16-35 15-95c0-66 28-99 85-99zM99-20c44 1 53-31 53-75 0-43-8-75-51-75s-53 32-53 75 10 74 51 75" id="y"/><path d="M33 0v-38h34V0H33" id="z"/><path d="M210-169c-67 3-38 105-44 169h-31v-121c0-29-5-50-35-48C34-165 62-65 56 0H25l-1-190h30c1 10-1 24 2 32 10-44 99-50 107 0 11-21 27-35 58-36 85-2 47 119 55 194h-31v-121c0-29-5-49-35-48" id="A"/><path d="M179-190L93 31C79 59 56 82 12 73V49c39 6 53-20 64-50L1-190h34L92-34l54-156h33" id="B"/><path d="M24 0v-261h32V0H24" id="C"/><path d="M135-143c-3-34-86-38-87 0 15 53 115 12 119 90S17 21 10-45l28-5c4 36 97 45 98 0-10-56-113-15-118-90-4-57 82-63 122-42 12 7 21 19 24 35" id="D"/><path d="M85-194c31 0 48 13 60 33l-1-100h32l1 261h-30c-2-10 0-23-3-31C134-8 116 4 85 4 32 4 16-35 15-94c0-66 23-100 70-100zm9 24c-40 0-46 34-46 75 0 40 6 74 45 74 42 0 51-32 51-76 0-42-9-74-50-73" id="E"/><path d="M100-194c63 0 86 42 84 106H49c0 40 14 67 53 68 26 1 43-12 49-29l28 8c-11 28-37 45-77 45C44 4 14-33 15-96c1-61 26-98 85-98zm52 81c6-60-76-77-97-28-3 7-6 17-6 28h103" id="F"/><path d="M108 0H70L1-190h34L89-25l56-165h34" id="G"/><g id="b"><use transform="matrix(0.05,0,0,0.05,0,0)" xlink:href="#u"/><use transform="matrix(0.05,0,0,0.05,10,0)" xlink:href="#v"/><use transform="matrix(0.05,0,0,0.05,20,0)" xlink:href="#w"/><use transform="matrix(0.05,0,0,0.05,25.950000000000003,0)" xlink:href="#x"/><use transform="matrix(0.05,0,0,0.05,35.95,0)" xlink:href="#y"/><use transform="matrix(0.05,0,0,0.05,45.95,0)" xlink:href="#w"/><use transform="matrix(0.05,0,0,0.05,50.900000000000006,0)" xlink:href="#z"/><use transform="matrix(0.05,0,0,0.05,55.900000000000006,0)" xlink:href="#A"/><use transform="matrix(0.05,0,0,0.05,70.85000000000001,0)" xlink:href="#B"/><use transform="matrix(0.05,0,0,0.05,79.85000000000001,0)" xlink:href="#C"/><use transform="matrix(0.05,0,0,0.05,83.80000000000001,0)" xlink:href="#v"/><use transform="matrix(0.05,0,0,0.05,93.80000000000001,0)" xlink:href="#x"/><use transform="matrix(0.05,0,0,0.05,103.80000000000001,0)" xlink:href="#D"/><use transform="matrix(0.05,0,0,0.05,112.80000000000001,0)" xlink:href="#z"/><use transform="matrix(0.05,0,0,0.05,117.80000000000001,0)" xlink:href="#E"/><use transform="matrix(0.05,0,0,0.05,127.80000000000001,0)" xlink:href="#F"/><use transform="matrix(0.05,0,0,0.05,137.8,0)" xlink:href="#G"/></g><path d="M739-1436c0 71-43 115-106 115-71 0-107-38-107-115 0-76 36-114 107-114s106 38 106 114zM541-954l-269-21v-123h451v955l352 20V0H197v-123l344-20v-811" id="H"/><path d="M1026-301c0 225-197 321-448 321-165 0-290-23-375-69v-166c129 57 252 86 370 86 183 0 275-54 275-162 0-38-16-71-49-99s-108-63-226-106c-156-57-253-112-293-160s-61-105-61-171c2-338 524-340 789-217l-60 149c-121-48-228-72-319-72-157 0-236 44-236 133 0 41 17 74 51 98s111 57 232 101c141 51 234 101 280 151s70 111 70 183" id="I"/><path d="M1020-150v138C933 9 849 20 768 20 527 20 406-95 406-324v-637H139v-94l267-49 77-287h105v293h438v137H588v637c0 130 64 195 192 195 62 0 142-7 240-21" id="J"/><path d="M1112-551c0 331-186 571-502 571-301 0-495-251-495-571 0-330 184-567 501-567 302 0 496 249 496 567zM614-131c207 0 310-140 310-420 0-277-104-416-312-416-206 0-309 139-309 416 0 280 104 420 311 420" id="K"/><path d="M1016-1462L389 0H211l627-1462h178" id="L"/><path d="M631-1118c283 0 470 204 465 491v113H322c5 250 120 375 344 375 130 0 253-25 370-76v160C925-5 804 20 672 20c-329 0-539-224-539-561 0-331 182-577 498-577zM326-662h573c0-203-91-305-272-305-183 0-284 102-301 305" id="M"/><path d="M510-563l-393-535h207l290 410 291-410h207L717-563 1130 0H924L614-436 303 0H96" id="N"/><path d="M596-1118c288 2 430 92 430 366V0H895l-37-152h-8C752-34 680 17 483 20 272 23 135-98 135-307c0-221 170-337 510-348l203-7c15-197-55-305-244-305-98 0-207 27-328 82l-63-137c131-64 258-96 383-96zm-72 991c194 0 325-116 322-311v-99c-251 15-522-6-522 232 0 119 67 178 200 178" id="O"/><path d="M977 0v-707c0-97-9-165-27-203s-47-57-88-57c-58 0-100 28-126 83s-40 148-40 278V0H535v-707c0-173-42-260-125-260-56 0-96 26-120 79s-36 160-36 319V0H92v-1098h127l27 148h10c45-112 112-168 201-168 109 0 180 61 213 182h6c51-121 124-182 219-182 85 0 147 30 186 92s58 165 58 309V0H977" id="P"/><path d="M1092-551c0 322-136 571-430 571-138 0-245-53-322-159h-12c24 220 7 402 12 631H158v-1590h147l27 148h8c73-112 181-168 322-168 294 0 430 246 430 567zM629-967c-241 0-288 156-289 416 0 151 24 259 70 323s120 97 221 97c181 0 272-141 272-422 0-276-91-414-274-414" id="Q"/><path d="M532-1413l-268-21v-122h451v1413l352 20V0H188v-123l344-20v-1270" id="R"/><path d="M285-465v-168h659v168H285" id="S"/><path d="M1092-551c0 322-136 571-430 571-138 0-245-53-322-159h-12L291 0H158v-1556h182c-2 221 6 379-8 602h8c71-109 179-164 322-164 294 0 430 246 430 567zM629-967c-241 0-289 146-289 416 0 151 24 259 70 323s120 97 221 97c181 0 272-141 272-422 0-276-91-414-274-414" id="T"/><path d="M383-553l135-152 395-393h222L641-623 1163 0H950L524-504l-129 82V0H215v-1556h180c-3 337 9 689-16 1003h4" id="U"/><path d="M887 0v-707c0-173-79-260-238-260-205 0-307 133-307 398V0H160v-1098h147l27 148h10c69-112 181-168 336-168 259 0 389 134 389 401V0H887" id="V"/><path d="M866-1417c-164 2-207 56-211 215v104h389v137H655V0H473v-961H156v-110l317-33c-17-319 78-463 389-463 86 0 170 12 252 35l-41 143c-69-19-138-28-207-28" id="W"/><path d="M137-547c0-322 136-571 430-571 137 0 245 53 322 160h12c-24-215-7-376-12-598h182V0H924l-27-147h-8C814-36 706 20 567 20c-294 0-430-246-430-567zm463 416c241 0 288-157 289-416 0-151-23-259-69-323s-121-97-222-97c-181 0-272 141-272 422 0 276 91 414 274 414" id="X"/><path d="M498 0L82-1098h188l240 652c57 154 90 262 100 325h6c67-256 244-708 340-977h189L729 0H498" id="Y"/><path d="M758 0H582c3-449-8-824 8-1274-61 68-188 168-268 234l-97-123 383-299h150V0" id="Z"/><g id="c"><use transform="matrix(0.009114583333333334,0,0,0.009114583333333334,0,0)" xlink:href="#H"/><use transform="matrix(0.009114583333333334,0,0,0.009114583333333334,11.201822916666668,0)" xlink:href="#I"/><use transform="matrix(0.009114583333333334,0,0,0.009114583333333334,22.403645833333336,0)" xlink:href="#J"/><use transform="matrix(0.009114583333333334,0,0,0.009114583333333334,33.60546875,0)" xlink:href="#H"/><use transform="matrix(0.009114583333333334,0,0,0.009114583333333334,44.80729166666667,0)" xlink:href="#K"/><use transform="matrix(0.009114583333333334,0,0,0.009114583333333334,56.00911458333334,0)" xlink:href="#L"/><use transform="matrix(0.009114583333333334,0,0,0.009114583333333334,67.21093750000001,0)" xlink:href="#M"/><use transform="matrix(0.009114583333333334,0,0,0.009114583333333334,78.41276041666669,0)" xlink:href="#N"/><use transform="matrix(0.009114583333333334,0,0,0.009114583333333334,89.61458333333336,0)" xlink:href="#O"/><use transform="matrix(0.009114583333333334,0,0,0.009114583333333334,100.81640625000003,0)" xlink:href="#P"/><use transform="matrix(0.009114583333333334,0,0,0.009114583333333334,112.01822916666671,0)" xlink:href="#Q"/><use transform="matrix(0.009114583333333334,0,0,0.009114583333333334,123.22005208333337,0)" xlink:href="#R"/><use transform="matrix(0.009114583333333334,0,0,0.009114583333333334,134.42187500000003,0)" xlink:href="#M"/><use transform="matrix(0.009114583333333334,0,0,0.009114583333333334,145.62369791666669,0)" xlink:href="#I"/><use transform="matrix(0.009114583333333334,0,0,0.009114583333333334,156.82552083333334,0)" xlink:href="#S"/><use transform="matrix(0.009114583333333334,0,0,0.009114583333333334,168.02734375,0)" xlink:href="#T"/><use transform="matrix(0.009114583333333334,0,0,0.009114583333333334,179.22916666666666,0)" xlink:href="#K"/><use transform="matrix(0.009114583333333334,0,0,0.009114583333333334,190.43098958333331,0)" xlink:href="#K"/><use transform="matrix(0.009114583333333334,0,0,0.009114583333333334,201.63281249999997,0)" xlink:href="#U"/><use transform="matrix(0.009114583333333334,0,0,0.009114583333333334,212.8346354166666,0)" xlink:href="#H"/><use transform="matrix(0.009114583333333334,0,0,0.009114583333333334,224.0364583333333,0)" xlink:href="#V"/><use transform="matrix(0.009114583333333334,0,0,0.009114583333333334,235.23828124999994,0)" xlink:href="#W"/><use transform="matrix(0.009114583333333334,0,0,0.009114583333333334,246.44010416666663,0)" xlink:href="#K"/><use transform="matrix(0.009114583333333334,0,0,0.009114583333333334,257.64192708333326,0)" xlink:href="#S"/><use transform="matrix(0.009114583333333334,0,0,0.009114583333333334,268.84374999999994,0)" xlink:href="#X"/><use transform="matrix(0.009114583333333334,0,0,0.009114583333333334,280.04557291666663,0)" xlink:href="#M"/><use transform="matrix(0.009114583333333334,0,0,0.009114583333333334,291.2473958333333,0)" xlink:href="#J"/><use transform="matrix(0.009114583333333334,0,0,0.009114583333333334,302.44921875,0)" xlink:href="#O"/><use transform="matrix(0.009114583333333334,0,0,0.009114583333333334,313.6510416666667,0)" xlink:href="#H"/><use transform="matrix(0.009114583333333334,0,0,0.009114583333333334,324.85286458333337,0)" xlink:href="#R"/><use transform="matrix(0.009114583333333334,0,0,0.009114583333333334,336.0546875000001,0)" xlink:href="#I"/><use transform="matrix(0.009114583333333334,0,0,0.009114583333333334,347.25651041666674,0)" xlink:href="#S"/><use transform="matrix(0.009114583333333334,0,0,0.009114583333333334,358.4583333333334,0)" xlink:href="#Y"/><use transform="matrix(0.009114583333333334,0,0,0.009114583333333334,369.6601562500001,0)" xlink:href="#Z"/></g><path d="M442-897c93-139 173-221 377-221 79 0 159 15 240 45l-49 166c-82-30-157-45-224-45-221 0-340 134-340 360V0H264v-1098h148l22 201h8" id="aa"/><path d="M188-739c-1-248 156-381 410-379 57 0 107 7 150 20h378v113l-196 27c43 57 65 128 65 213 2 253-212 385-489 346-67 37-100 82-100 133 0 56 54 84 161 84h187c216-2 358 93 358 297 0 251-188 377-565 377-145 0-255-26-331-80S102 283 102 186c0-141 80-231 240-270-64-31-96-83-96-154 0-75 44-139 133-192-109-41-191-166-191-309zm406 221c149 0 223-77 223-230 0-159-75-239-225-239s-225 81-225 242c0 151 76 227 227 227zm346 649c0-146-78-149-248-149H504c-153 0-230 66-230 198 0 116 90 174 271 174 263 0 395-74 395-223" id="ab"/><g id="d"><use transform="matrix(0.009114583333333334,0,0,0.009114583333333334,0,0)" xlink:href="#H"/><use transform="matrix(0.009114583333333334,0,0,0.009114583333333334,11.201822916666668,0)" xlink:href="#I"/><use transform="matrix(0.009114583333333334,0,0,0.009114583333333334,22.403645833333336,0)" xlink:href="#J"/><use transform="matrix(0.009114583333333334,0,0,0.009114583333333334,33.60546875,0)" xlink:href="#H"/><use transform="matrix(0.009114583333333334,0,0,0.009114583333333334,44.80729166666667,0)" xlink:href="#K"/><use transform="matrix(0.009114583333333334,0,0,0.009114583333333334,56.00911458333334,0)" xlink:href="#L"/><use transform="matrix(0.009114583333333334,0,0,0.009114583333333334,67.21093750000001,0)" xlink:href="#M"/><use transform="matrix(0.009114583333333334,0,0,0.009114583333333334,78.41276041666669,0)" xlink:href="#N"/><use transform="matrix(0.009114583333333334,0,0,0.009114583333333334,89.61458333333336,0)" xlink:href="#O"/><use transform="matrix(0.009114583333333334,0,0,0.009114583333333334,100.81640625000003,0)" xlink:href="#P"/><use transform="matrix(0.009114583333333334,0,0,0.009114583333333334,112.01822916666671,0)" xlink:href="#Q"/><use transform="matrix(0.009114583333333334,0,0,0.009114583333333334,123.22005208333337,0)" xlink:href="#R"/><use transform="matrix(0.009114583333333334,0,0,0.009114583333333334,134.42187500000003,0)" xlink:href="#M"/><use transform="matrix(0.009114583333333334,0,0,0.009114583333333334,145.62369791666669,0)" xlink:href="#I"/><use transform="matrix(0.009114583333333334,0,0,0.009114583333333334,156.82552083333334,0)" xlink:href="#S"/><use transform="matrix(0.009114583333333334,0,0,0.009114583333333334,168.02734375,0)" xlink:href="#T"/><use transform="matrix(0.009114583333333334,0,0,0.009114583333333334,179.22916666666666,0)" xlink:href="#K"/><use transform="matrix(0.009114583333333334,0,0,0.009114583333333334,190.43098958333331,0)" xlink:href="#K"/><use transform="matrix(0.009114583333333334,0,0,0.009114583333333334,201.63281249999997,0)" xlink:href="#U"/><use transform="matrix(0.009114583333333334,0,0,0.009114583333333334,212.8346354166666,0)" xlink:href="#H"/><use transform="matrix(0.009114583333333334,0,0,0.009114583333333334,224.0364583333333,0)" xlink:href="#V"/><use transform="matrix(0.009114583333333334,0,0,0.009114583333333334,235.23828124999994,0)" xlink:href="#W"/><use transform="matrix(0.009114583333333334,0,0,0.009114583333333334,246.44010416666663,0)" xlink:href="#K"/><use transform="matrix(0.009114583333333334,0,0,0.009114583333333334,257.64192708333326,0)" xlink:href="#S"/><use transform="matrix(0.009114583333333334,0,0,0.009114583333333334,268.84374999999994,0)" xlink:href="#aa"/><use transform="matrix(0.009114583333333334,0,0,0.009114583333333334,280.04557291666663,0)" xlink:href="#O"/><use transform="matrix(0.009114583333333334,0,0,0.009114583333333334,291.2473958333333,0)" xlink:href="#J"/><use transform="matrix(0.009114583333333334,0,0,0.009114583333333334,302.44921875,0)" xlink:href="#H"/><use transform="matrix(0.009114583333333334,0,0,0.009114583333333334,313.6510416666667,0)" xlink:href="#V"/><use transform="matrix(0.009114583333333334,0,0,0.009114583333333334,324.85286458333337,0)" xlink:href="#ab"/><use transform="matrix(0.009114583333333334,0,0,0.009114583333333334,336.0546875000001,0)" xlink:href="#I"/><use transform="matrix(0.009114583333333334,0,0,0.009114583333333334,347.25651041666674,0)" xlink:href="#S"/><use transform="matrix(0.009114583333333334,0,0,0.009114583333333334,358.4583333333334,0)" xlink:href="#Y"/><use transform="matrix(0.009114583333333334,0,0,0.009114583333333334,369.6601562500001,0)" xlink:href="#Z"/></g><path d="M578-131c239 0 309-137 309-397v-570h182V0H922l-27-147h-10C815-36 704 20 551 20c-261 0-391-134-391-401v-717h182v707c0 173 79 260 236 260" id="ac"/><path d="M172-543c0-365 197-575 553-575 119 0 231 20 336 59l-62 158c-100-38-189-57-268-57-247 0-371 138-371 413 0 271 120 406 361 406 105 0 212-21 321-62v160C953 0 843 20 713 20c-347 1-541-210-541-563" id="ad"/><g id="e"><use transform="matrix(0.009114583333333334,0,0,0.009114583333333334,0,0)" xlink:href="#H"/><use transform="matrix(0.009114583333333334,0,0,0.009114583333333334,11.201822916666668,0)" xlink:href="#I"/><use transform="matrix(0.009114583333333334,0,0,0.009114583333333334,22.403645833333336,0)" xlink:href="#J"/><use transform="matrix(0.009114583333333334,0,0,0.009114583333333334,33.60546875,0)" xlink:href="#H"/><use transform="matrix(0.009114583333333334,0,0,0.009114583333333334,44.80729166666667,0)" xlink:href="#K"/><use transform="matrix(0.009114583333333334,0,0,0.009114583333333334,56.00911458333334,0)" xlink:href="#L"/><use transform="matrix(0.009114583333333334,0,0,0.009114583333333334,67.21093750000001,0)" xlink:href="#M"/><use transform="matrix(0.009114583333333334,0,0,0.009114583333333334,78.41276041666669,0)" xlink:href="#N"/><use transform="matrix(0.009114583333333334,0,0,0.009114583333333334,89.61458333333336,0)" xlink:href="#O"/><use transform="matrix(0.009114583333333334,0,0,0.009114583333333334,100.81640625000003,0)" xlink:href="#P"/><use transform="matrix(0.009114583333333334,0,0,0.009114583333333334,112.01822916666671,0)" xlink:href="#Q"/><use transform="matrix(0.009114583333333334,0,0,0.009114583333333334,123.22005208333337,0)" xlink:href="#R"/><use transform="matrix(0.009114583333333334,0,0,0.009114583333333334,134.42187500000003,0)" xlink:href="#M"/><use transform="matrix(0.009114583333333334,0,0,0.009114583333333334,145.62369791666669,0)" xlink:href="#I"/><use transform="matrix(0.009114583333333334,0,0,0.009114583333333334,156.82552083333334,0)" xlink:href="#S"/><use transform="matrix(0.009114583333333334,0,0,0.009114583333333334,168.02734375,0)" xlink:href="#T"/><use transform="matrix(0.009114583333333334,0,0,0.009114583333333334,179.22916666666666,0)" xlink:href="#K"/><use transform="matrix(0.009114583333333334,0,0,0.009114583333333334,190.43098958333331,0)" xlink:href="#K"/><use transform="matrix(0.009114583333333334,0,0,0.009114583333333334,201.63281249999997,0)" xlink:href="#U"/><use transform="matrix(0.009114583333333334,0,0,0.009114583333333334,212.8346354166666,0)" xlink:href="#H"/><use transform="matrix(0.009114583333333334,0,0,0.009114583333333334,224.0364583333333,0)" xlink:href="#V"/><use transform="matrix(0.009114583333333334,0,0,0.009114583333333334,235.23828124999994,0)" xlink:href="#W"/><use transform="matrix(0.009114583333333334,0,0,0.009114583333333334,246.44010416666663,0)" xlink:href="#K"/><use transform="matrix(0.009114583333333334,0,0,0.009114583333333334,257.64192708333326,0)" xlink:href="#S"/><use transform="matrix(0.009114583333333334,0,0,0.009114583333333334,268.84374999999994,0)" xlink:href="#Q"/><use transform="matrix(0.009114583333333334,0,0,0.009114583333333334,280.04557291666663,0)" xlink:href="#aa"/><use transform="matrix(0.009114583333333334,0,0,0.009114583333333334,291.2473958333333,0)" xlink:href="#K"/><use transform="matrix(0.009114583333333334,0,0,0.009114583333333334,302.44921875,0)" xlink:href="#X"/><use transform="matrix(0.009114583333333334,0,0,0.009114583333333334,313.6510416666667,0)" xlink:href="#ac"/><use transform="matrix(0.009114583333333334,0,0,0.009114583333333334,324.85286458333337,0)" xlink:href="#ad"/><use transform="matrix(0.009114583333333334,0,0,0.009114583333333334,336.0546875000001,0)" xlink:href="#J"/><use transform="matrix(0.009114583333333334,0,0,0.009114583333333334,347.25651041666674,0)" xlink:href="#Q"/><use transform="matrix(0.009114583333333334,0,0,0.009114583333333334,358.4583333333334,0)" xlink:href="#O"/><use transform="matrix(0.009114583333333334,0,0,0.009114583333333334,369.6601562500001,0)" xlink:href="#ab"/><use transform="matrix(0.009114583333333334,0,0,0.009114583333333334,380.8619791666668,0)" xlink:href="#M"/><use transform="matrix(0.009114583333333334,0,0,0.009114583333333334,392.0638020833335,0)" xlink:href="#S"/><use transform="matrix(0.009114583333333334,0,0,0.009114583333333334,403.26562500000017,0)" xlink:href="#Y"/><use transform="matrix(0.009114583333333334,0,0,0.009114583333333334,414.4674479166668,0)" xlink:href="#Z"/></g><path d="M813 0c-67-308-137-613-199-926h-6C551-608 477-306 408 0H219L-4-1098h162c53 313 118 604 155 936h6c53-329 132-625 201-936h193c63 300 147 629 194 936h6c45-366 103-603 162-936h158L1008 0H813" id="ae"/><g id="f"><use transform="matrix(0.009114583333333334,0,0,0.009114583333333334,0,0)" xlink:href="#H"/><use transform="matrix(0.009114583333333334,0,0,0.009114583333333334,11.201822916666668,0)" xlink:href="#I"/><use transform="matrix(0.009114583333333334,0,0,0.009114583333333334,22.403645833333336,0)" xlink:href="#J"/><use transform="matrix(0.009114583333333334,0,0,0.009114583333333334,33.60546875,0)" xlink:href="#H"/><use transform="matrix(0.009114583333333334,0,0,0.009114583333333334,44.80729166666667,0)" xlink:href="#K"/><use transform="matrix(0.009114583333333334,0,0,0.009114583333333334,56.00911458333334,0)" xlink:href="#L"/><use transform="matrix(0.009114583333333334,0,0,0.009114583333333334,67.21093750000001,0)" xlink:href="#M"/><use transform="matrix(0.009114583333333334,0,0,0.009114583333333334,78.41276041666669,0)" xlink:href="#N"/><use transform="matrix(0.009114583333333334,0,0,0.009114583333333334,89.61458333333336,0)" xlink:href="#O"/><use transform="matrix(0.009114583333333334,0,0,0.009114583333333334,100.81640625000003,0)" xlink:href="#P"/><use transform="matrix(0.009114583333333334,0,0,0.009114583333333334,112.01822916666671,0)" xlink:href="#Q"/><use transform="matrix(0.009114583333333334,0,0,0.009114583333333334,123.22005208333337,0)" xlink:href="#R"/><use transform="matrix(0.009114583333333334,0,0,0.009114583333333334,134.42187500000003,0)" xlink:href="#M"/><use transform="matrix(0.009114583333333334,0,0,0.009114583333333334,145.62369791666669,0)" xlink:href="#I"/><use transform="matrix(0.009114583333333334,0,0,0.009114583333333334,156.82552083333334,0)" xlink:href="#S"/><use transform="matrix(0.009114583333333334,0,0,0.009114583333333334,168.02734375,0)" xlink:href="#T"/><use transform="matrix(0.009114583333333334,0,0,0.009114583333333334,179.22916666666666,0)" xlink:href="#K"/><use transform="matrix(0.009114583333333334,0,0,0.009114583333333334,190.43098958333331,0)" xlink:href="#K"/><use transform="matrix(0.009114583333333334,0,0,0.009114583333333334,201.63281249999997,0)" xlink:href="#U"/><use transform="matrix(0.009114583333333334,0,0,0.009114583333333334,212.8346354166666,0)" xlink:href="#H"/><use transform="matrix(0.009114583333333334,0,0,0.009114583333333334,224.0364583333333,0)" xlink:href="#V"/><use transform="matrix(0.009114583333333334,0,0,0.009114583333333334,235.23828124999994,0)" xlink:href="#W"/><use transform="matrix(0.009114583333333334,0,0,0.009114583333333334,246.44010416666663,0)" xlink:href="#K"/><use transform="matrix(0.009114583333333334,0,0,0.009114583333333334,257.64192708333326,0)" xlink:href="#S"/><use transform="matrix(0.009114583333333334,0,0,0.009114583333333334,268.84374999999994,0)" xlink:href="#aa"/><use transform="matrix(0.009114583333333334,0,0,0.009114583333333334,280.04557291666663,0)" xlink:href="#M"/><use transform="matrix(0.009114583333333334,0,0,0.009114583333333334,291.2473958333333,0)" xlink:href="#Y"/><use transform="matrix(0.009114583333333334,0,0,0.009114583333333334,302.44921875,0)" xlink:href="#H"/><use transform="matrix(0.009114583333333334,0,0,0.009114583333333334,313.6510416666667,0)" xlink:href="#M"/><use transform="matrix(0.009114583333333334,0,0,0.009114583333333334,324.85286458333337,0)" xlink:href="#ae"/><use transform="matrix(0.009114583333333334,0,0,0.009114583333333334,336.0546875000001,0)" xlink:href="#I"/><use transform="matrix(0.009114583333333334,0,0,0.009114583333333334,347.25651041666674,0)" xlink:href="#S"/><use transform="matrix(0.009114583333333334,0,0,0.009114583333333334,358.4583333333334,0)" xlink:href="#Y"/><use transform="matrix(0.009114583333333334,0,0,0.009114583333333334,369.6601562500001,0)" xlink:href="#Z"/></g><path d="M594-1483c248 0 420 149 418 391 0 79-21 160-59 244-73 161-414 504-572 674v8h688V0H158v-156c172-193 489-508 607-698 43-69 62-147 62-231 0-146-91-244-235-244-107 0-213 46-318 137l-102-119c128-115 269-172 422-172" id="af"/><g id="g"><use transform="matrix(0.009114583333333334,0,0,0.009114583333333334,0,0)" xlink:href="#H"/><use transform="matrix(0.009114583333333334,0,0,0.009114583333333334,11.201822916666668,0)" xlink:href="#I"/><use transform="matrix(0.009114583333333334,0,0,0.009114583333333334,22.403645833333336,0)" xlink:href="#J"/><use transform="matrix(0.009114583333333334,0,0,0.009114583333333334,33.60546875,0)" xlink:href="#H"/><use transform="matrix(0.009114583333333334,0,0,0.009114583333333334,44.80729166666667,0)" xlink:href="#K"/><use transform="matrix(0.009114583333333334,0,0,0.009114583333333334,56.00911458333334,0)" xlink:href="#L"/><use transform="matrix(0.009114583333333334,0,0,0.009114583333333334,67.21093750000001,0)" xlink:href="#M"/><use transform="matrix(0.009114583333333334,0,0,0.009114583333333334,78.41276041666669,0)" xlink:href="#N"/><use transform="matrix(0.009114583333333334,0,0,0.009114583333333334,89.61458333333336,0)" xlink:href="#O"/><use transform="matrix(0.009114583333333334,0,0,0.009114583333333334,100.81640625000003,0)" xlink:href="#P"/><use transform="matrix(0.009114583333333334,0,0,0.009114583333333334,112.01822916666671,0)" xlink:href="#Q"/><use transform="matrix(0.009114583333333334,0,0,0.009114583333333334,123.22005208333337,0)" xlink:href="#R"/><use transform="matrix(0.009114583333333334,0,0,0.009114583333333334,134.42187500000003,0)" xlink:href="#M"/><use transform="matrix(0.009114583333333334,0,0,0.009114583333333334,145.62369791666669,0)" xlink:href="#I"/><use transform="matrix(0.009114583333333334,0,0,0.009114583333333334,156.82552083333334,0)" xlink:href="#S"/><use transform="matrix(0.009114583333333334,0,0,0.009114583333333334,168.02734375,0)" xlink:href="#T"/><use transform="matrix(0.009114583333333334,0,0,0.009114583333333334,179.22916666666666,0)" xlink:href="#K"/><use transform="matrix(0.009114583333333334,0,0,0.009114583333333334,190.43098958333331,0)" xlink:href="#K"/><use transform="matrix(0.009114583333333334,0,0,0.009114583333333334,201.63281249999997,0)" xlink:href="#U"/><use transform="matrix(0.009114583333333334,0,0,0.009114583333333334,212.8346354166666,0)" xlink:href="#H"/><use transform="matrix(0.009114583333333334,0,0,0.009114583333333334,224.0364583333333,0)" xlink:href="#V"/><use transform="matrix(0.009114583333333334,0,0,0.009114583333333334,235.23828124999994,0)" xlink:href="#W"/><use transform="matrix(0.009114583333333334,0,0,0.009114583333333334,246.44010416666663,0)" xlink:href="#K"/><use transform="matrix(0.009114583333333334,0,0,0.009114583333333334,257.64192708333326,0)" xlink:href="#S"/><use transform="matrix(0.009114583333333334,0,0,0.009114583333333334,268.84374999999994,0)" xlink:href="#aa"/><use transform="matrix(0.009114583333333334,0,0,0.009114583333333334,280.04557291666663,0)" xlink:href="#M"/><use transform="matrix(0.009114583333333334,0,0,0.009114583333333334,291.2473958333333,0)" xlink:href="#Y"/><use transform="matrix(0.009114583333333334,0,0,0.009114583333333334,302.44921875,0)" xlink:href="#H"/><use transform="matrix(0.009114583333333334,0,0,0.009114583333333334,313.6510416666667,0)" xlink:href="#M"/><use transform="matrix(0.009114583333333334,0,0,0.009114583333333334,324.85286458333337,0)" xlink:href="#ae"/><use transform="matrix(0.009114583333333334,0,0,0.009114583333333334,336.0546875000001,0)" xlink:href="#I"/><use transform="matrix(0.009114583333333334,0,0,0.009114583333333334,347.25651041666674,0)" xlink:href="#S"/><use transform="matrix(0.009114583333333334,0,0,0.009114583333333334,358.4583333333334,0)" xlink:href="#Y"/><use transform="matrix(0.009114583333333334,0,0,0.009114583333333334,369.6601562500001,0)" xlink:href="#af"/></g><path d="M1010-1120c0 200-132 322-316 350v6c241 31 361 147 361 348 0 294-219 436-537 436-161 0-290-26-387-79v-170c123 64 250 96 383 96 236 0 354-96 354-289 0-172-127-258-381-258H354v-151h133c195 4 334-97 336-277 1-140-106-221-250-221-119 0-233 40-344 121l-92-125c125-100 270-150 436-150 252 0 437 128 437 363" id="ag"/><g id="h"><use transform="matrix(0.009114583333333334,0,0,0.009114583333333334,0,0)" xlink:href="#H"/><use transform="matrix(0.009114583333333334,0,0,0.009114583333333334,11.201822916666668,0)" xlink:href="#I"/><use transform="matrix(0.009114583333333334,0,0,0.009114583333333334,22.403645833333336,0)" xlink:href="#J"/><use transform="matrix(0.009114583333333334,0,0,0.009114583333333334,33.60546875,0)" xlink:href="#H"/><use transform="matrix(0.009114583333333334,0,0,0.009114583333333334,44.80729166666667,0)" xlink:href="#K"/><use transform="matrix(0.009114583333333334,0,0,0.009114583333333334,56.00911458333334,0)" xlink:href="#L"/><use transform="matrix(0.009114583333333334,0,0,0.009114583333333334,67.21093750000001,0)" xlink:href="#M"/><use transform="matrix(0.009114583333333334,0,0,0.009114583333333334,78.41276041666669,0)" xlink:href="#N"/><use transform="matrix(0.009114583333333334,0,0,0.009114583333333334,89.61458333333336,0)" xlink:href="#O"/><use transform="matrix(0.009114583333333334,0,0,0.009114583333333334,100.81640625000003,0)" xlink:href="#P"/><use transform="matrix(0.009114583333333334,0,0,0.009114583333333334,112.01822916666671,0)" xlink:href="#Q"/><use transform="matrix(0.009114583333333334,0,0,0.009114583333333334,123.22005208333337,0)" xlink:href="#R"/><use transform="matrix(0.009114583333333334,0,0,0.009114583333333334,134.42187500000003,0)" xlink:href="#M"/><use transform="matrix(0.009114583333333334,0,0,0.009114583333333334,145.62369791666669,0)" xlink:href="#I"/><use transform="matrix(0.009114583333333334,0,0,0.009114583333333334,156.82552083333334,0)" xlink:href="#S"/><use transform="matrix(0.009114583333333334,0,0,0.009114583333333334,168.02734375,0)" xlink:href="#T"/><use transform="matrix(0.009114583333333334,0,0,0.009114583333333334,179.22916666666666,0)" xlink:href="#K"/><use transform="matrix(0.009114583333333334,0,0,0.009114583333333334,190.43098958333331,0)" xlink:href="#K"/><use transform="matrix(0.009114583333333334,0,0,0.009114583333333334,201.63281249999997,0)" xlink:href="#U"/><use transform="matrix(0.009114583333333334,0,0,0.009114583333333334,212.8346354166666,0)" xlink:href="#H"/><use transform="matrix(0.009114583333333334,0,0,0.009114583333333334,224.0364583333333,0)" xlink:href="#V"/><use transform="matrix(0.009114583333333334,0,0,0.009114583333333334,235.23828124999994,0)" xlink:href="#W"/><use transform="matrix(0.009114583333333334,0,0,0.009114583333333334,246.44010416666663,0)" xlink:href="#K"/><use transform="matrix(0.009114583333333334,0,0,0.009114583333333334,257.64192708333326,0)" xlink:href="#S"/><use transform="matrix(0.009114583333333334,0,0,0.009114583333333334,268.84374999999994,0)" xlink:href="#aa"/><use transform="matrix(0.009114583333333334,0,0,0.009114583333333334,280.04557291666663,0)" xlink:href="#M"/><use transform="matrix(0.009114583333333334,0,0,0.009114583333333334,291.2473958333333,0)" xlink:href="#Y"/><use transform="matrix(0.009114583333333334,0,0,0.009114583333333334,302.44921875,0)" xlink:href="#H"/><use transform="matrix(0.009114583333333334,0,0,0.009114583333333334,313.6510416666667,0)" xlink:href="#M"/><use transform="matrix(0.009114583333333334,0,0,0.009114583333333334,324.85286458333337,0)" xlink:href="#ae"/><use transform="matrix(0.009114583333333334,0,0,0.009114583333333334,336.0546875000001,0)" xlink:href="#I"/><use transform="matrix(0.009114583333333334,0,0,0.009114583333333334,347.25651041666674,0)" xlink:href="#S"/><use transform="matrix(0.009114583333333334,0,0,0.009114583333333334,358.4583333333334,0)" xlink:href="#Y"/><use transform="matrix(0.009114583333333334,0,0,0.009114583333333334,369.6601562500001,0)" xlink:href="#ag"/></g><path d="M233-177c-1 41-23 64-60 70L243 0h-38l-65-103H63V0H30v-248c88 3 205-21 203 71zM63-129c60-2 137 13 137-47 0-61-80-42-137-45v92" id="ah"/><path d="M115-194c55 1 70 41 70 98S169 2 115 4C84 4 66-9 55-30l1 105H24l-1-265h31l2 30c10-21 28-34 59-34zm-8 174c40 0 45-34 45-75s-6-73-45-74c-42 0-51 32-51 76 0 43 10 73 51 73" id="ai"/><path d="M24-231v-30h32v30H24zM24 0v-190h32V0H24" id="aj"/><path d="M96-169c-40 0-48 33-48 73s9 75 48 75c24 0 41-14 43-38l32 2c-6 37-31 61-74 61-59 0-76-41-82-99-10-93 101-131 147-64 4 7 5 14 7 22l-32 3c-4-21-16-35-41-35" id="ak"/><path d="M59-47c-2 24 18 29 38 22v24C64 9 27 4 27-40v-127H5v-23h24l9-43h21v43h35v23H59v120" id="al"/><path d="M117-194c89-4 53 116 60 194h-32v-121c0-31-8-49-39-48C34-167 62-67 57 0H25l-1-190h30c1 10-1 24 2 32 11-22 29-35 61-36" id="am"/><g id="i"><use transform="matrix(0.07407407407407408,0,0,0.07407407407407408,0,0)" xlink:href="#ah"/><use transform="matrix(0.07407407407407408,0,0,0.07407407407407408,19.185185185185187,0)" xlink:href="#F"/><use transform="matrix(0.07407407407407408,0,0,0.07407407407407408,34,0)" xlink:href="#ai"/><use transform="matrix(0.07407407407407408,0,0,0.07407407407407408,48.81481481481481,0)" xlink:href="#C"/><use transform="matrix(0.07407407407407408,0,0,0.07407407407407408,54.66666666666667,0)" xlink:href="#aj"/><use transform="matrix(0.07407407407407408,0,0,0.07407407407407408,60.518518518518526,0)" xlink:href="#ak"/><use transform="matrix(0.07407407407407408,0,0,0.07407407407407408,73.85185185185186,0)" xlink:href="#v"/><use transform="matrix(0.07407407407407408,0,0,0.07407407407407408,88.66666666666667,0)" xlink:href="#al"/><use transform="matrix(0.07407407407407408,0,0,0.07407407407407408,96.07407407407409,0)" xlink:href="#aj"/><use transform="matrix(0.07407407407407408,0,0,0.07407407407407408,101.92592592592594,0)" xlink:href="#y"/><use transform="matrix(0.07407407407407408,0,0,0.07407407407407408,116.74074074074076,0)" xlink:href="#am"/></g><path d="M30 0v-248h33v221h125V0H30" id="an"/><g id="j"><use transform="matrix(0.05,0,0,0.05,0,0)" xlink:href="#an"/><use transform="matrix(0.05,0,0,0.05,10,0)" xlink:href="#aj"/><use transform="matrix(0.05,0,0,0.05,13.949999999999998,0)" xlink:href="#x"/><use transform="matrix(0.05,0,0,0.05,23.95,0)" xlink:href="#w"/><use transform="matrix(0.05,0,0,0.05,29.899999999999995,0)" xlink:href="#v"/><use transform="matrix(0.05,0,0,0.05,39.9,0)" xlink:href="#w"/><use transform="matrix(0.05,0,0,0.05,45.85,0)" xlink:href="#B"/></g><path d="M30-248c87 1 191-15 191 75 0 78-77 80-158 76V0H30v-248zm33 125c57 0 124 11 124-50 0-59-68-47-124-48v98" id="ao"/><path d="M24-231v-30h32v30H24zM-9 49c24 4 33-6 33-30v-209h32V24c2 40-23 58-65 49V49" id="ap"/><g id="k"><use transform="matrix(0.05,0,0,0.05,0,0)" xlink:href="#ao"/><use transform="matrix(0.05,0,0,0.05,12,0)" xlink:href="#w"/><use transform="matrix(0.05,0,0,0.05,17.95,0)" xlink:href="#y"/><use transform="matrix(0.05,0,0,0.05,27.950000000000003,0)" xlink:href="#ap"/><use transform="matrix(0.05,0,0,0.05,31.899999999999995,0)" xlink:href="#F"/><use transform="matrix(0.05,0,0,0.05,41.9,0)" xlink:href="#ak"/><use transform="matrix(0.05,0,0,0.05,50.9,0)" xlink:href="#al"/></g></defs></g></svg>